<svg width="70" height="70" viewBox="0 0 70 70" fill="none" xmlns="http://www.w3.org/2000/svg">
<circle cx="35" cy="35" r="35" fill="#E7EDFF"/>
<path d="M37.6872 34.843C41.7794 34.843 45.1081 31.5137 45.1081 27.4215C45.1081 23.3293 41.7794 20 37.6872 20C33.595 20 30.2657 23.3293 30.2657 27.4215C30.2657 31.5137 33.595 34.843 37.6872 34.843ZM36.8083 23.0592V22.8576C36.8083 22.3719 37.2015 21.9787 37.6872 21.9787C38.1724 21.9787 38.5661 22.3719 38.5661 22.8576V23.0604C39.612 23.2848 40.3989 24.2164 40.3989 25.3285C40.3989 25.8137 40.0052 26.2074 39.52 26.2074C39.0343 26.2074 38.6411 25.8137 38.6411 25.3285C38.6411 25.0186 38.3886 24.766 38.0786 24.766H37.2905C36.9806 24.766 36.728 25.0186 36.728 25.3285C36.728 25.5061 36.813 25.6748 36.956 25.7803L37.6872 26.3217L39.4638 27.6365C40.0474 28.0684 40.3989 28.7592 40.4036 29.4858V29.494C40.4077 30.1139 40.1704 30.6987 39.7345 31.1399C39.411 31.4674 39.0067 31.6871 38.5661 31.7797V31.9854C38.5661 32.4711 38.1724 32.8643 37.6872 32.8643C37.2015 32.8643 36.8083 32.4711 36.8083 31.9854V31.7827C36.3794 31.6912 35.9851 31.4803 35.6663 31.1651C35.2251 30.7297 34.9802 30.1485 34.9767 29.5285C34.9737 29.0434 35.3645 28.6473 35.8497 28.6444H35.8556C36.3384 28.6444 36.7315 29.0346 36.7345 29.518C36.7356 29.8213 36.9797 30.077 37.2999 30.077C37.7855 30.0741 37.6047 30.0751 38.0868 30.0723C38.3988 30.0698 38.6482 29.8167 38.6458 29.5057V29.4975C38.6446 29.3217 38.5597 29.1541 38.4179 29.0492L37.6872 28.5084L35.9101 27.1936C35.3218 26.7576 34.9702 26.0604 34.9702 25.3285C34.9702 24.2141 35.7595 23.2818 36.8083 23.0592Z" fill="#396AFF"/>
<path d="M25.6625 39.066C25.4372 38.6754 24.9368 38.5395 24.5438 38.7662L20.4095 41.1528C20.018 41.3793 19.8837 41.88 20.1097 42.272L24.3352 49.5905C24.5614 49.9819 25.0617 50.1163 25.4539 49.8903L29.5882 47.5032C29.9802 47.2771 30.114 46.7764 29.8879 46.3844L25.6625 39.066Z" fill="#396AFF"/>
<path d="M49.3514 37.6051C48.9536 37.0525 48.1837 36.9277 47.6317 37.3256C45.9571 38.532 42.7415 40.8488 42.486 41.0334C42.3682 41.1336 42.2446 41.2244 42.1157 41.3047C41.61 41.6229 41.0235 41.7928 40.4112 41.7928H36.2012C35.7161 41.7928 35.3223 41.3996 35.3223 40.9139C35.3223 40.4276 35.7166 40.035 36.2012 40.035H40.7036C41.3651 40.035 41.8948 39.4842 41.8672 38.8215C41.8415 38.1928 41.3047 37.7053 40.6754 37.7053H37.2483C37.0162 37.4598 36.762 37.2348 36.4895 37.0338C35.5526 36.343 34.3948 35.9346 33.1414 35.9346C30.9131 35.9346 28.6959 37.3385 27.7766 39.2123L31.3719 45.4391H38.1161C39.4403 45.4391 40.7446 45.1004 41.8924 44.4401C42.2903 44.2115 42.7163 43.9367 43.178 43.6051C45.1128 42.2153 49.0684 39.3277 49.0714 39.326C49.6245 38.9287 49.7499 38.1576 49.3514 37.6051Z" fill="#396AFF"/>
</svg>
