<svg width="70" height="70" viewBox="0 0 70 70" fill="none" xmlns="http://www.w3.org/2000/svg">
<circle cx="35" cy="35" r="35" fill="#FFF5D9"/>
<path d="M29.3708 39.6678C29.6222 39.8174 29.838 40.0121 30.0103 40.2371H33.2654V37.0806L31.7219 36.1236C31.3781 35.9105 31.2723 35.459 31.4854 35.1153C31.6985 34.7716 32.1498 34.6657 32.4937 34.8787L33.9978 35.8112L35.3088 34.9984C32.6939 31.4128 33.2944 26.3322 36.7751 23.4646C31.0417 21.5439 25.0272 25.8135 25.0001 31.9456C24.9859 35.1976 26.7173 38.0882 29.3708 39.6678Z" fill="#FFBB38"/>
<path d="M30.4683 41.7018H37.4012V43.3618H30.4683V41.7018Z" fill="#FFBB38"/>
<path d="M34.7301 37.0806V40.237H37.8494C38.015 40.0185 38.2217 39.8312 38.4621 39.6896C39.1278 39.2978 39.7389 38.8199 40.2805 38.273C38.7506 37.9285 37.3767 37.1677 36.2842 36.1163C36.2425 36.1434 35.9423 36.3291 34.7301 37.0806Z" fill="#FFBB38"/>
<path d="M42.1371 23.0023C38.2968 23.0023 35.1553 26.1757 35.1553 30.0329C35.1553 33.6611 37.9405 36.6654 41.5116 36.9861C45.6443 37.3553 49.1189 34.0793 49.1189 30.0329C49.1189 26.1832 45.9869 23.0023 42.1371 23.0023ZM42.8704 33.2072V33.3603C42.8704 33.7647 42.5425 34.0926 42.1381 34.0926C41.7336 34.0926 41.4057 33.7647 41.4057 33.3603V33.29C41.0683 33.2308 40.76 33.1046 40.3706 32.8498C40.0321 32.6284 39.9372 32.1745 40.1586 31.836C40.38 31.4975 40.834 31.4026 41.1724 31.624C41.5294 31.8576 41.6451 31.8758 42.1331 31.8724C42.6042 31.8693 42.792 31.4995 42.8286 31.2815C42.8615 31.0857 42.8246 30.8255 42.4616 30.6972C41.8536 30.4823 41.2301 30.2356 40.7884 29.8892C39.7825 29.1003 40.0862 27.2984 41.4058 26.819V26.7129C41.4058 26.3085 41.7337 25.9806 42.1381 25.9806C42.5426 25.9806 42.8705 26.3085 42.8705 26.7129V26.7535C43.2313 26.8554 43.5219 27.0396 43.7216 27.2426C44.0052 27.5309 44.0013 27.9946 43.7129 28.2782C43.4247 28.5617 42.9613 28.5579 42.6778 28.2701C42.6369 28.2302 42.4113 28.0421 41.9229 28.1892C41.7279 28.2479 41.6755 28.4501 41.6641 28.5107C41.6402 28.6372 41.6742 28.7224 41.6923 28.7367C41.9686 28.9534 42.483 29.1513 42.9498 29.3163C44.88 29.9985 44.6449 32.5657 42.8704 33.2072Z" fill="#FFBB38"/>
<path d="M31.64 45.7052C31.64 46.9705 32.6694 47.9999 33.9348 47.9999C35.2001 47.9999 36.2295 46.9705 36.2295 45.7052V44.8264H31.64V45.7052Z" fill="#FFBB38"/>
</svg>
