<svg width="24" height="24" viewBox="0 0 24 24" fill="none" xmlns="http://www.w3.org/2000/svg">
<path d="M12 2.99023C6.04463 2.99023 1 6.89667 1 11.9902C1 13.8969 1.798 15.6216 3 17.0508V20.9766C2.99981 21.2145 3.08446 21.4447 3.23875 21.6259C3.39304 21.807 3.60686 21.9272 3.8418 21.9648C3.8418 21.9648 6.34866 22.2577 8.66016 20.4902C9.72064 20.7703 10.8214 20.9902 12 20.9902C17.9554 20.9902 23 17.0838 23 11.9902C23 6.89667 17.9553 2.99023 12 2.99023ZM12 4.99023C17.0907 4.99023 21 8.2478 21 11.9902C21 15.7327 17.0906 18.9902 12 18.9902C10.8459 18.9902 9.74836 18.8125 8.73047 18.502C8.56509 18.4515 8.38945 18.4447 8.22069 18.4824C8.05193 18.52 7.89581 18.6008 7.76758 18.7168C6.64888 19.7273 5.69171 19.9215 5 19.9629V16.7754C5.00015 16.5216 4.9038 16.2772 4.73047 16.0918C3.62556 14.9117 3 13.509 3 11.9902C3 8.2478 6.90937 4.99023 12 4.99023Z" fill="#808080" fill-opacity="0.55"/>
</svg>
