<svg width="26" height="26" viewBox="0 0 26 26" fill="none" xmlns="http://www.w3.org/2000/svg">
<path d="M4.92074 10.2272H2.1367C1.50904 10.2272 1 10.7362 1 11.3639V23.8639C1 24.491 1.50904 25 2.1367 25H4.92074C5.5484 25 6.05692 24.491 6.05692 23.8639V11.3639C6.05692 10.7362 5.5484 10.2272 4.92074 10.2272Z" fill="#B1B1B1"/>
<path d="M11.5686 13.6356H8.78459C8.1564 13.6356 7.64789 14.1447 7.64789 14.7723V23.8627C7.64789 24.4909 8.1564 24.9994 8.78459 24.9994H11.5686C12.1963 24.9994 12.7048 24.4904 12.7048 23.8627V14.7723C12.7048 14.1447 12.1963 13.6356 11.5686 13.6356Z" fill="#B1B1B1"/>
<path d="M18.2154 13.6356H15.4314C14.8037 13.6356 14.2952 14.1447 14.2952 14.7723V23.8627C14.2952 24.4909 14.8037 24.9994 15.4314 24.9994H18.2154C18.8436 24.9994 19.3521 24.4904 19.3521 23.8627V14.7723C19.3521 14.1447 18.8436 13.6356 18.2154 13.6356Z" fill="#B1B1B1"/>
<path d="M24.8633 10.2272H22.0793C21.4516 10.2272 20.9431 10.7362 20.9431 11.3639V23.8639C20.9431 24.4915 21.4516 25 22.0793 25H24.8633C25.491 25 26 24.4905 26 23.8639V11.3639C26 10.7362 25.491 10.2272 24.8633 10.2272Z" fill="#B1B1B1"/>
<path d="M13.8314 6.8457V8.89145C14.4505 8.85049 15.1032 8.56007 15.1032 7.87868C15.1032 7.17549 14.3877 6.96964 13.8314 6.8457Z" fill="#B1B1B1"/>
<path d="M12.0521 4.39732C12.0521 4.91434 12.4367 5.21328 13.2117 5.3686V3.51807C12.5074 3.53881 12.0521 3.95264 12.0521 4.39732Z" fill="#B1B1B1"/>
<path d="M13.5 0C10.0537 0 7.25 2.80426 7.25 6.25C7.25 9.69468 10.0537 12.4989 13.5 12.4989C16.9463 12.4989 19.75 9.69468 19.75 6.25C19.75 2.80426 16.9463 0 13.5 0ZM13.8314 9.94628V10.5862C13.8314 10.7622 13.6963 10.9378 13.5197 10.9378C13.3452 10.9378 13.2117 10.7622 13.2117 10.5862V9.94628C11.4654 9.90372 10.5968 8.86011 10.5968 8.04362C10.5968 7.63138 10.8463 7.39309 11.2367 7.39309C12.3941 7.39309 11.4941 8.81915 13.2117 8.89096V6.73138C11.6798 6.45319 10.7521 5.78138 10.7521 4.63457C10.7521 3.22979 11.9202 2.50532 13.2117 2.46489V1.91383C13.2117 1.73777 13.3452 1.56223 13.5197 1.56223C13.6963 1.56223 13.8314 1.73777 13.8314 1.91383V2.46489C14.6367 2.48617 16.2904 2.99149 16.2904 4.00479C16.2904 4.40745 15.9894 4.64468 15.6378 4.64468C14.9654 4.64468 14.975 3.53989 13.8314 3.51862V5.48191C15.1952 5.77181 16.4032 6.17447 16.4032 7.76596C16.4032 9.15 15.3702 9.85213 13.8314 9.94628Z" fill="#B1B1B1"/>
</svg>
